# xmcd
#
# Track frame offsets:
#	150
#	19526
#	36024
#	52485
#	66877
#	84988
#	100947
#	119039
#	137957
#	153057
#	171780
#	189873
#
# Disc length: 2771 seconds
#
# Revision: 1
# Processed by: cddbd v1.5.2PL0 Copyright (c) Steve Scherf et al.
# Submitted via: audiograbber 1.83.01
#
DISCID=9d0ad10c
DTITLE=Various Artist - Pop 90er CD 1
DYEAR=2007
DGENRE=Pop
TTITLE0=Culture Beat - Mr. Vain
TTITLE1=Eifel 65 - Blue
TTITLE2=Bega, Lou - Mambo No. 5
TTITLE3=Rednex - Cotton eye Joe
TTITLE4=La Bouche - Be my lover
TTITLE5=Scatman John - Scatman
TTITLE6=Dr. Alban - Sing hallelujah !
TTITLE7=Los Del Rio - Macarena
TTITLE8=Milli Vanilli - All or nothing
TTITLE9=Run DMC Vs. Jason Nevins - It's like that
TTITLE10=Dr. Alban - It's my life
TTITLE11=No Mercy - Missing
EXTD=
EXTT0=
EXTT1=
EXTT2=
EXTT3=
EXTT4=
EXTT5=
EXTT6=
EXTT7=
EXTT8=
EXTT9=
EXTT10=
EXTT11=
PLAYORDER=
